<svg width="594" height="106" viewBox="0 0 594 106" fill="none" xmlns="http://www.w3.org/2000/svg">
<path d="M0.4 73.28H6.16V87.104L17.936 98.88H59.152L1.68 31.168V13.504L13.584 1.6H63.888L72.848 10.56V0.319992H78.608V32.32H72.848V18.496L61.072 6.71999H23.696L81.168 74.432V92.096L69.264 104H15.12L6.16 95.04V105.28H0.4V73.28ZM99.785 31.04H94.025V1.6H181.065V31.04H175.305V6.71999H152.265V98.88H162.505V104H112.585V98.88H122.825V6.71999H99.785V31.04ZM207.084 104L193.9 90.816V14.784L207.084 1.6H264.556L277.74 14.784V90.816L264.556 104H207.084ZM223.34 6.71999V98.88H248.3V6.71999H223.34ZM395.997 6.71999H385.757V104H351.197L302.685 6.71999V98.88H312.925V104H286.685V98.88H296.925V6.71999H286.685V1.6H331.485L379.997 98.88V6.71999H369.757V1.6H395.997V6.71999ZM440.74 98.88H449.7V104H401.06V98.88H411.3V6.71999H401.06V1.6H449.7V6.71999H440.74V98.88ZM509.604 98.88V104H469.028L445.22 55.232V50.24L480.548 6.71999H469.156V1.6H500.644V6.71999H487.588L452.388 50.24H476.964L500.644 98.88H509.604ZM593.239 104H510.935V98.88H521.175V6.71999H510.935V1.6H593.239V31.04H587.479V6.71999H550.615V48.96H583.639V54.08H550.615V98.88H587.479V74.56H593.239V104Z" fill="white"/>
</svg>
