<svg width="422" height="19" viewBox="0 0 422 19" fill="none" xmlns="http://www.w3.org/2000/svg">
<path d="M14.3555 0.785156V2.83594H8.55469V18H6.1875V2.83594H0.386719V0.785156H14.3555ZM16.5586 0.785156H18.9141V7.89844H27.8672V0.785156H30.2227V18H27.8672V9.94922H18.9141V18H16.5586V0.785156ZM34.0664 0.785156H46.6172V2.89453H36.3398V8.12109H45.8438V10.1133H36.3398V15.9492H46.793V18H34.0664V0.785156ZM56.5312 0.785156H58.8047V9.17578L67.1953 0.785156H70.418L63.2578 7.72266L70.6172 18H67.582L61.5586 9.36328L58.8047 12V18H56.5312V0.785156ZM73.0664 0.785156H75.4219V18H73.0664V0.785156ZM79.2188 0.785156H81.9727L90.668 14.7305V0.785156H92.8828V18H90.2695L81.4453 4.06641V18H79.2188V0.785156ZM104.004 0.339844C105.621 0.339844 107.02 0.652344 108.199 1.27734C109.91 2.17578 110.957 3.75 111.34 6H109.031C108.75 4.74219 108.168 3.82813 107.285 3.25781C106.402 2.67969 105.289 2.39062 103.945 2.39062C102.352 2.39062 101.008 2.98828 99.9141 4.18359C98.8281 5.37891 98.2852 7.16016 98.2852 9.52734C98.2852 11.5742 98.7344 13.2422 99.6328 14.5312C100.531 15.8125 101.996 16.4531 104.027 16.4531C105.582 16.4531 106.867 16.0039 107.883 15.1055C108.906 14.1992 109.43 12.7383 109.453 10.7227H104.062V8.78906H111.621V18H110.121L109.559 15.7852C108.77 16.6523 108.07 17.2539 107.461 17.5898C106.438 18.168 105.137 18.457 103.559 18.457C101.52 18.457 99.7656 17.7969 98.2969 16.4766C96.6953 14.8203 95.8945 12.5469 95.8945 9.65625C95.8945 6.77344 96.6758 4.48047 98.2383 2.77734C99.7227 1.15234 101.645 0.339844 104.004 0.339844ZM129.352 0.316406C132.391 0.316406 134.641 1.29297 136.102 3.24609C137.242 4.76953 137.812 6.71875 137.812 9.09375C137.812 11.6641 137.16 13.8008 135.855 15.5039C134.324 17.5039 132.141 18.5039 129.305 18.5039C126.656 18.5039 124.574 17.6289 123.059 15.8789C121.707 14.1914 121.031 12.0586 121.031 9.48047C121.031 7.15234 121.609 5.16016 122.766 3.50391C124.25 1.37891 126.445 0.316406 129.352 0.316406ZM129.586 16.418C131.641 16.418 133.125 15.6836 134.039 14.2148C134.961 12.7383 135.422 11.043 135.422 9.12891C135.422 7.10547 134.891 5.47656 133.828 4.24219C132.773 3.00781 131.328 2.39062 129.492 2.39062C127.711 2.39062 126.258 3.00391 125.133 4.23047C124.008 5.44922 123.445 7.25 123.445 9.63281C123.445 11.5391 123.926 13.1484 124.887 14.4609C125.855 15.7656 127.422 16.418 129.586 16.418ZM140.824 0.785156H152.766V2.89453H143.156V8.12109H151.605V10.1719H143.156V18H140.824V0.785156ZM163.09 0.785156L166.336 14.7891L170.227 0.785156H172.758L176.648 14.7891L179.895 0.785156H182.449L177.926 18H175.477L171.504 3.72656L167.508 18H165.059L160.559 0.785156H163.09ZM192.562 10.9453L189.949 3.33984L187.172 10.9453H192.562ZM188.73 0.785156H191.367L197.613 18H195.059L193.312 12.8438H186.504L184.641 18H182.25L188.73 0.785156ZM199.734 0.785156H202.066V15.9492H210.785V18H199.734V0.785156ZM213.094 0.785156H215.426V15.9492H224.145V18H213.094V0.785156ZM233.766 12.4453C233.82 13.4219 234.051 14.2148 234.457 14.8242C235.23 15.9648 236.594 16.5352 238.547 16.5352C239.422 16.5352 240.219 16.4102 240.938 16.1602C242.328 15.6758 243.023 14.8086 243.023 13.5586C243.023 12.6211 242.73 11.9531 242.145 11.5547C241.551 11.1641 240.621 10.8242 239.355 10.5352L237.023 10.0078C235.5 9.66406 234.422 9.28516 233.789 8.87109C232.695 8.15234 232.148 7.07812 232.148 5.64844C232.148 4.10156 232.684 2.83203 233.754 1.83984C234.824 0.847656 236.34 0.351562 238.301 0.351562C240.105 0.351562 241.637 0.789062 242.895 1.66406C244.16 2.53125 244.793 3.92188 244.793 5.83594H242.602C242.484 4.91406 242.234 4.20703 241.852 3.71484C241.141 2.81641 239.934 2.36719 238.23 2.36719C236.855 2.36719 235.867 2.65625 235.266 3.23438C234.664 3.8125 234.363 4.48438 234.363 5.25C234.363 6.09375 234.715 6.71094 235.418 7.10156C235.879 7.35156 236.922 7.66406 238.547 8.03906L240.961 8.58984C242.125 8.85547 243.023 9.21875 243.656 9.67969C244.75 10.4844 245.297 11.6523 245.297 13.1836C245.297 15.0898 244.602 16.4531 243.211 17.2734C241.828 18.0938 240.219 18.5039 238.383 18.5039C236.242 18.5039 234.566 17.957 233.355 16.8633C232.145 15.7773 231.551 14.3047 231.574 12.4453H233.766ZM260.777 0.785156V2.83594H254.977V18H252.609V2.83594H246.809V0.785156H260.777ZM270.926 8.67188C272.02 8.67188 272.883 8.45312 273.516 8.01562C274.156 7.57812 274.477 6.78906 274.477 5.64844C274.477 4.42188 274.031 3.58594 273.141 3.14062C272.664 2.90625 272.027 2.78906 271.23 2.78906H265.535V8.67188H270.926ZM263.203 0.785156H271.172C272.484 0.785156 273.566 0.976562 274.418 1.35938C276.035 2.09375 276.844 3.44922 276.844 5.42578C276.844 6.45703 276.629 7.30078 276.199 7.95703C275.777 8.61328 275.184 9.14062 274.418 9.53906C275.09 9.8125 275.594 10.1719 275.93 10.6172C276.273 11.0625 276.465 11.7852 276.504 12.7852L276.586 15.0938C276.609 15.75 276.664 16.2383 276.75 16.5586C276.891 17.1055 277.141 17.457 277.5 17.6133V18H274.641C274.562 17.8516 274.5 17.6602 274.453 17.4258C274.406 17.1914 274.367 16.7383 274.336 16.0664L274.195 13.1953C274.141 12.0703 273.723 11.3164 272.941 10.9336C272.496 10.7227 271.797 10.6172 270.844 10.6172H265.535V18H263.203V0.785156ZM280.488 0.785156H293.039V2.89453H282.762V8.12109H292.266V10.1133H282.762V15.9492H293.215V18H280.488V0.785156ZM296.496 0.785156H309.047V2.89453H298.77V8.12109H308.273V10.1133H298.77V15.9492H309.223V18H296.496V0.785156ZM324.809 0.785156V2.83594H319.008V18H316.641V2.83594H310.84V0.785156H324.809ZM340.641 0.316406C343.68 0.316406 345.93 1.29297 347.391 3.24609C348.531 4.76953 349.102 6.71875 349.102 9.09375C349.102 11.6641 348.449 13.8008 347.145 15.5039C345.613 17.5039 343.43 18.5039 340.594 18.5039C337.945 18.5039 335.863 17.6289 334.348 15.8789C332.996 14.1914 332.32 12.0586 332.32 9.48047C332.32 7.15234 332.898 5.16016 334.055 3.50391C335.539 1.37891 337.734 0.316406 340.641 0.316406ZM340.875 16.418C342.93 16.418 344.414 15.6836 345.328 14.2148C346.25 12.7383 346.711 11.043 346.711 9.12891C346.711 7.10547 346.18 5.47656 345.117 4.24219C344.062 3.00781 342.617 2.39062 340.781 2.39062C339 2.39062 337.547 3.00391 336.422 4.23047C335.297 5.44922 334.734 7.25 334.734 9.63281C334.734 11.5391 335.215 13.1484 336.176 14.4609C337.145 15.7656 338.711 16.418 340.875 16.418ZM351.891 0.785156H354.645L363.34 14.7305V0.785156H365.555V18H362.941L354.117 4.06641V18H351.891V0.785156ZM377.438 12.4453C377.492 13.4219 377.723 14.2148 378.129 14.8242C378.902 15.9648 380.266 16.5352 382.219 16.5352C383.094 16.5352 383.891 16.4102 384.609 16.1602C386 15.6758 386.695 14.8086 386.695 13.5586C386.695 12.6211 386.402 11.9531 385.816 11.5547C385.223 11.1641 384.293 10.8242 383.027 10.5352L380.695 10.0078C379.172 9.66406 378.094 9.28516 377.461 8.87109C376.367 8.15234 375.82 7.07812 375.82 5.64844C375.82 4.10156 376.355 2.83203 377.426 1.83984C378.496 0.847656 380.012 0.351562 381.973 0.351562C383.777 0.351562 385.309 0.789062 386.566 1.66406C387.832 2.53125 388.465 3.92188 388.465 5.83594H386.273C386.156 4.91406 385.906 4.20703 385.523 3.71484C384.812 2.81641 383.605 2.36719 381.902 2.36719C380.527 2.36719 379.539 2.65625 378.938 3.23438C378.336 3.8125 378.035 4.48438 378.035 5.25C378.035 6.09375 378.387 6.71094 379.09 7.10156C379.551 7.35156 380.594 7.66406 382.219 8.03906L384.633 8.58984C385.797 8.85547 386.695 9.21875 387.328 9.67969C388.422 10.4844 388.969 11.6523 388.969 13.1836C388.969 15.0898 388.273 16.4531 386.883 17.2734C385.5 18.0938 383.891 18.5039 382.055 18.5039C379.914 18.5039 378.238 17.957 377.027 16.8633C375.816 15.7773 375.223 14.3047 375.246 12.4453H377.438ZM399.352 0.316406C402.391 0.316406 404.641 1.29297 406.102 3.24609C407.242 4.76953 407.812 6.71875 407.812 9.09375C407.812 11.6641 407.16 13.8008 405.855 15.5039C404.324 17.5039 402.141 18.5039 399.305 18.5039C396.656 18.5039 394.574 17.6289 393.059 15.8789C391.707 14.1914 391.031 12.0586 391.031 9.48047C391.031 7.15234 391.609 5.16016 392.766 3.50391C394.25 1.37891 396.445 0.316406 399.352 0.316406ZM399.586 16.418C401.641 16.418 403.125 15.6836 404.039 14.2148C404.961 12.7383 405.422 11.043 405.422 9.12891C405.422 7.10547 404.891 5.47656 403.828 4.24219C402.773 3.00781 401.328 2.39062 399.492 2.39062C397.711 2.39062 396.258 3.00391 395.133 4.23047C394.008 5.44922 393.445 7.25 393.445 9.63281C393.445 11.5391 393.926 13.1484 394.887 14.4609C395.855 15.7656 397.422 16.418 399.586 16.418ZM410.602 0.785156H412.934V15.9492H421.652V18H410.602V0.785156Z" fill="white"/>
</svg>
